<svg xmlns="http://www.w3.org/2000/svg" xmlns:xlink="http://www.w3.org/1999/xlink" width="65" height="65" viewBox="0 0 65 65">
  <defs>
    <clipPath id="clip-iPhone_13_12_Pro_Max_12">
      <rect width="65" height="65"/>
    </clipPath>
  </defs>
  <g id="iPhone_13_12_Pro_Max_12" data-name="iPhone 13, 12 Pro Max – 12" clip-path="url(#clip-iPhone_13_12_Pro_Max_12)">
    <path id="Icon_material-shopping-basket" data-name="Icon material-shopping-basket" d="M25.815,13.5l-6.57-9.84A1.489,1.489,0,0,0,18,3.03a1.466,1.466,0,0,0-1.245.645L10.185,13.5H3A1.5,1.5,0,0,0,1.5,15a1.263,1.263,0,0,0,.06.4l3.81,13.9A2.983,2.983,0,0,0,8.25,31.5h19.5a3.014,3.014,0,0,0,2.9-2.19l3.81-13.9L34.5,15A1.5,1.5,0,0,0,33,13.5ZM13.5,13.5,18,6.9l4.5,6.6Zm4.5,12a3,3,0,1,1,3-3A3.009,3.009,0,0,1,18,25.5Z" transform="translate(14.5 15.235)"/>
  </g>
</svg>
